<svg xmlns="http://www.w3.org/2000/svg" viewBox="0 0 1008 252"><path d="M65.3 196.3v-62.6c6.5-1.3 12.4-2.1 17.9-2.1 9.5 0 17 2.7 22.1 8.4 5.3 5.7 7.8 13.7 7.8 23.7 0 10.5-2.5 18.5-7.8 23.9-5.3 5.5-12.8 8.4-22.7 8.4H65.3v.3zm17.4-7.3c7.1 0 12.4-2.1 16-6.1 3.6-4.2 5.3-10.3 5.3-18.7 0-8.6-1.7-14.9-5.3-18.9-3.4-4.2-8.6-6.1-15.8-6.1-2.9 0-5.9.2-9 .8v49h8.8zm53.6 7.3v-64.1h8.6v64.1h-8.6zm79-2.7c-5.5 2.7-11.6 4-18.1 4-9.2 0-16.4-2.9-21.4-8.8s-7.6-14.1-7.6-24.6c0-6.9 1.3-13 3.6-18.1 2.3-5 5.7-8.8 9.9-11.3s9.5-3.8 15.3-3.8c6.1 0 12 1.3 17.2 4v7.1c-5.5-2.5-10.9-4-16.4-4-6.7 0-11.8 2.3-15.3 6.7s-5.3 10.9-5.3 19.3c0 8.6 1.7 15.1 5.3 19.5 3.6 4.4 8.6 6.5 15.5 6.5 3.2 0 6.1-.4 9-1.3v-20h-6.9l1.1-7.1h14.3v31.7h-.2zm23.3 2.7v-64.1h8.6v64.1h-8.6zm46.4 0v-56.7h-18.3v-7.4h45.2v7.4h-18.3v56.7H285zm79.2 0l-5.3-15.8h-25.4l-5 15.8h-8.8l21.6-64.1h10.3l21.6 64.1h-9zm-28.6-22.7h21.2l-10.7-33-10.5 33zm56.4 22.7v-64.1h8.6V189h28.6v7.4H392zm75.2 0v-64.1H505v7.4h-29.2v21.8h25.4v7.4h-25.4v27.5h-8.6zm54.4-31.9c0-10.7 2.3-19.1 6.7-24.8 4.6-5.7 11.1-8.6 19.5-8.6s15.1 2.9 19.5 8.6c4.6 5.7 6.7 14.1 6.7 24.8s-2.3 19.1-6.7 24.8c-4.4 5.7-11.1 8.6-19.5 8.6s-15.1-2.9-19.5-8.6c-4.4-5.9-6.7-14.1-6.7-24.8zm9 0c0 8.8 1.5 15.3 4.2 19.5 2.7 4.2 7.1 6.5 13 6.5s10.3-2.1 13-6.5c2.7-4.2 4.2-10.9 4.2-19.5 0-8.8-1.5-15.3-4.2-19.5s-7.1-6.5-13-6.5-10.3 2.1-13 6.5c-2.7 4.2-4.2 10.7-4.2 19.5zm101.9 31.9l-15.1-25.4h-11.1v25.4h-8.4v-62.6c2.7-.6 5.9-1.1 9.5-1.5s6.5-.6 9-.6c7.1 0 13 1.7 17 5.3 4.2 3.6 6.1 8.4 6.1 14.5 0 4.4-1.3 8.2-3.6 11.3-2.3 3.2-5.7 5.3-10.1 6.7l17 26.7h-10.3v.2zm-17-57.7c-2.7 0-5.9.2-9.5.8V164h9.2c4.8 0 8.6-1.1 11.1-3.4 2.5-2.1 4-5.3 4-9.2 0-4.2-1.3-7.4-3.8-9.7-2.4-2.1-6.2-3.1-11-3.1zm110.5 55c-5.5 2.7-11.6 4-18.1 4-9.2 0-16.4-2.9-21.4-8.8s-7.6-14.1-7.6-24.6c0-6.9 1.3-13 3.6-18.1 2.3-5 5.7-8.8 9.9-11.3s9.5-3.8 15.3-3.8c6.1 0 12 1.3 17.2 4v7.1c-5.5-2.5-10.9-4-16.4-4-6.7 0-11.8 2.3-15.3 6.7-3.6 4.4-5.3 10.9-5.3 19.3 0 8.6 1.7 15.1 5.3 19.5 3.6 4.4 8.6 6.5 15.5 6.5 3.2 0 6.1-.4 9-1.3v-20h-6.9l1.1-7.1h14.3v31.7h-.2zm20.4-29.2c0-10.7 2.3-19.1 6.7-24.8 4.6-5.7 11.1-8.6 19.5-8.6s15.1 2.9 19.5 8.6c4.6 5.7 6.7 14.1 6.7 24.8s-2.3 19.1-6.7 24.8c-4.4 5.7-11.1 8.6-19.5 8.6s-15.1-2.9-19.5-8.6c-4.4-5.9-6.7-14.1-6.7-24.8zm9 0c0 8.8 1.5 15.3 4.2 19.5 2.7 4.2 7.1 6.5 13 6.5s10.3-2.1 13-6.5c2.7-4.2 4.2-10.9 4.2-19.5 0-8.8-1.5-15.3-4.2-19.5-2.7-4.2-7.1-6.5-13-6.5s-10.3 2.1-13 6.5c-2.7 4.2-4.2 10.7-4.2 19.5zm64.1 0c0-10.7 2.3-19.1 6.7-24.8 4.6-5.7 11.1-8.6 19.5-8.6s15.1 2.9 19.5 8.6c4.6 5.7 6.7 14.1 6.7 24.8s-2.3 19.1-6.7 24.8c-4.4 5.7-11.1 8.6-19.5 8.6s-15.1-2.9-19.5-8.6c-4.4-5.9-6.7-14.1-6.7-24.8zm9 0c0 8.8 1.5 15.3 4.2 19.5 2.7 4.2 7.1 6.5 13 6.5s10.3-2.1 13-6.5c2.7-4.2 4.2-10.9 4.2-19.5 0-8.8-1.5-15.3-4.2-19.5s-7.1-6.5-13-6.5-10.3 2.1-13 6.5c-2.7 4.2-4.2 10.7-4.2 19.5zm67 31.9v-62.6c6.5-1.3 12.4-2.1 17.9-2.1 9.5 0 17 2.7 22.1 8.4 5.3 5.7 7.8 13.7 7.8 23.7 0 10.5-2.5 18.5-7.8 23.9-5.3 5.5-12.8 8.4-22.7 8.4h-17.2v.3zm17.3-7.3c7.1 0 12.4-2.1 16-6.1 3.6-4.2 5.3-10.3 5.3-18.7 0-8.6-1.7-14.9-5.3-18.9-3.4-4.2-8.6-6.1-15.8-6.1-2.9 0-5.9.2-9 .8v49h8.8zm42.4-40.4v-12.2h-4v-1.3h9.7v1.3h-4v12.2h-1.7zm19.3 0l-.6-11.1-3.8 9.9h-1.5l-3.8-9.9-.6 11.1h-1.5l1.1-13.7h1.9l4 10.3 4-10.3h1.9l1.1 13.7h-2.2zM670.3 65.9c-1.7 0-3.2-.4-4.4-1.3-1.3-.8-2.3-1.9-2.9-3.2-.6-1.3-1.1-2.7-1.1-4.2 0-1.7.4-3.2 1.3-4.4s1.9-2.3 3.2-3.2c1.3-.6 2.7-1.1 4.2-1.1 1.7 0 3.2.4 4.4 1.3s2.3 1.9 2.9 3.2 1.1 2.7 1.1 4.2c0 1.7-.4 3.2-1.3 4.4s-1.9 2.3-3.2 3.2c-1.2.9-2.7 1.1-4.2 1.1zm0-1.3c1.3 0 2.5-.4 3.6-1.1s1.9-1.5 2.5-2.7c.6-1.1.8-2.3.8-3.8s-.4-2.7-1.1-3.8c-.6-1.1-1.5-1.9-2.5-2.5-1.1-.6-2.1-.8-3.4-.8s-2.5.4-3.6 1.1c-1.1.6-1.9 1.5-2.5 2.7s-.8 2.3-.8 3.8.4 2.7 1.1 3.8c.6 1.1 1.5 1.9 2.5 2.5.9.4 2.2.8 3.4.8zm2.1-2.7l-2.3-3.8h-1.5v3.8h-1.3v-9.2c1.1-.2 1.9-.2 2.7-.2 1.1 0 1.9.2 2.5.8.6.4.8 1.3.8 2.1 0 1.3-.6 2.3-2.1 2.7l2.5 4h-1.5v-.2zm-3.8-4.9h1.3c.6 0 1.3-.2 1.7-.4.4-.4.6-.8.6-1.3 0-.6-.2-1.1-.6-1.3-.4-.2-.8-.4-1.7-.4-.4 0-.8 0-1.3.2V57zM370.5 94.9c-3.6 1.9-7.4 2.7-11.3 2.7-5.7 0-9.9-2.1-13-6.3-3.2-4.2-4.6-9.9-4.6-17.2s1.5-13.2 4.6-17.2c3.2-4 7.6-6.3 13-6.3 3.8 0 7.6.8 11.1 2.7v3.4c-1.9-1.1-3.8-1.7-5.5-2.1-1.7-.4-3.4-.6-5.3-.6-4.6 0-8.2 1.7-10.5 5-2.3 3.4-3.6 8.4-3.6 15.1 0 6.7 1.3 11.6 3.6 15.1 2.3 3.6 5.9 5 10.5 5 3.6 0 7.1-.8 10.7-2.7v3.4h.3zm29 1.8l-.2-2.3c-3.6 2.1-7.1 3.2-10.7 3.2-3.2 0-5.9-.8-7.8-2.5-1.9-1.7-2.7-4.2-2.7-7.1 0-3.2 1.1-5.7 3.2-7.4 2.1-1.7 5.3-2.5 9.2-2.5 2.5 0 5.3.2 8.4.8v-4.4c0-5.5-2.9-8-8.8-8-1.5 0-3.2.2-5 .6-1.9.4-3.6 1.1-5 1.7v-2.9c1.5-.6 3.2-1.3 5.3-1.7 2.1-.4 3.8-.6 5.5-.6 4 0 6.9 1.1 9 2.9 2.1 1.9 3.2 4.6 3.2 8.2v22.1l-3.6-.1zm-10.1-2.3c1.5 0 3.2-.2 4.8-.6 1.7-.4 3.4-1.1 4.8-1.9V81.6c-2.7-.4-5.3-.8-7.8-.8-3.2 0-5.7.6-7.1 1.7-1.5 1.1-2.1 2.9-2.1 5.3.1 4.3 2.6 6.6 7.4 6.6zm24.4 16.6V64.4l3.2-.4.2 2.3c3.6-2.1 6.9-3.2 9.9-3.2 4.2 0 7.4 1.5 9.7 4.4 2.3 2.9 3.6 6.9 3.6 12.2 0 5.7-1.3 10.1-4 13.2-2.7 3.2-6.5 4.6-11.6 4.6-2.5 0-5-.4-7.1-1.1v13.9l-3.9.7zm12.8-44.7c-1.5 0-2.9.2-4.4.6-1.7.4-3.2 1.1-4.6 1.9v24.6c2.1.6 4.4 1.1 6.9 1.1 4 0 6.9-1.3 9-3.6 1.9-2.3 2.9-6.1 2.9-10.9 0-4.4-.8-7.8-2.5-10.1-1.8-2.4-4.1-3.6-7.3-3.6zm25-10.1c-.8 0-1.5-.2-2.1-.8-.6-.6-.8-1.3-.8-2.1s.2-1.7.8-2.1c.4-.4 1.3-.8 2.1-.8s1.5.2 2.1.8c.4.4.8 1.3.8 2.1s-.2 1.7-.8 2.1c-.6.4-1.2.8-2.1.8zm-1.9 40.3V64.4l3.8-.4v32.6h-3.8zm20-29.4v20.6c0 2.3.4 3.8 1.5 4.8.8 1.1 2.3 1.7 4.2 1.7 1.3 0 2.7-.2 4.2-.6v2.9c-1.7.6-3.4.8-4.8.8-2.9 0-5-.8-6.5-2.5s-2.3-4-2.3-7.1V67.1h-4.8v-2.7l4.8-.2.4-8.2 3.4-.4v8.6h9.5v2.9h-9.6zm36.7 29.6l-.2-2.3c-3.6 2.1-7.1 3.2-10.7 3.2-3.2 0-5.9-.8-7.8-2.5-1.9-1.7-2.7-4.2-2.7-7.1 0-3.2 1.1-5.7 3.2-7.4 2.1-1.7 5.3-2.5 9.2-2.5 2.5 0 5.3.2 8.4.8v-4.4c0-5.5-2.9-8-8.8-8-1.5 0-3.2.2-5 .6-1.9.4-3.6 1.1-5 1.7v-2.9c1.5-.6 3.2-1.3 5.3-1.7 2.1-.4 3.8-.6 5.5-.6 4 0 6.9 1.1 9 2.9 2.1 1.9 3.2 4.6 3.2 8.2v22.1l-3.6-.1zm-10-2.3c1.5 0 3.2-.2 4.8-.6 1.7-.4 3.4-1.1 4.8-1.9V81.6c-2.7-.4-5.3-.8-7.8-.8-3.2 0-5.7.6-7.1 1.7-1.5 1.1-2.1 2.9-2.1 5.3-.2 4.3 2.3 6.6 7.4 6.6zm24.3 2.1V48.2l3.8-.4v48.7h-3.8zm48.6 1.1c-5.9 0-10.3-2.1-13.2-6.1-3.2-4-4.6-9.9-4.6-17.4s1.5-13.2 4.6-17.4c3.2-4 7.6-6.1 13.2-6.1 5.9 0 10.3 2.1 13.2 6.1 3.2 4 4.6 9.9 4.6 17.4s-1.5 13.2-4.6 17.4c-3.2 4-7.6 6.1-13.2 6.1zm0-3.4c9.2 0 13.9-6.7 13.9-20.2s-4.6-20.2-13.9-20.2c-9.2 0-13.9 6.7-13.9 20.2s4.6 20.2 13.9 20.2zm49.1 2.3V74.1c0-5.3-2.5-8-7.8-8-1.5 0-2.9.2-4.6.6-1.7.4-3.4 1.1-4.8 1.9v27.9h-3.8V64.2l3.2-.4.2 2.3c3.6-2.1 7.1-3.2 10.7-3.2 3.4 0 6.1.8 8 2.7 1.9 1.9 2.7 4.4 2.7 7.8v23.1h-3.8zm37-1c-2.9 1.5-6.1 2.1-9.2 2.1-4.8 0-8.6-1.5-11.1-4.4-2.5-2.9-4-7.1-4-12.6s1.3-9.7 3.6-12.8c2.5-3.2 5.7-4.6 10.1-4.6 3.8 0 6.7 1.3 8.8 3.6s3.2 5.7 3.2 9.9c0 1.5-.2 2.9-.4 4.4h-21.6c0 9 4 13.4 11.6 13.4 3.2 0 6.1-.6 9-2.1v3.2zm-10.7-29.2c-2.9 0-5.3 1.1-6.9 3.2-1.9 2.1-2.7 5-2.9 8.6h18.3c0-.6.2-1.3.2-1.9 0-3.2-.8-5.7-2.3-7.4-1.6-1.7-3.7-2.5-6.4-2.5z" fill="#fff"/></svg>